<svg width="168" height="42" viewBox="0 0 168 42" fill="none" xmlns="http://www.w3.org/2000/svg">
<g clip-path="url(#clip0_118_355)">
<path d="M12.5897 7.83469C11.7287 7.61124 10.8317 7.56059 9.95084 7.68574C9.07001 7.81089 8.22301 8.10931 7.45918 8.56361C6.33895 9.21162 5.40201 10.1318 4.7359 11.2381V0H1.57544V26.0212C0.694341 27.6845 0.173471 29.5132 0.0464478 31.3894C-0.0805759 33.2655 0.189074 35.1473 0.837996 36.9132C1.41029 38.4824 2.45052 39.8401 3.81937 40.8043C4.87208 41.5613 6.13433 41.9753 7.43284 41.9895C7.43284 41.9895 12.0155 42.4195 13.5642 38.413H13.7327V41.5595H16.8089V13.1365C16.8089 13.1365 16.8089 8.94119 12.5949 7.83469M4.65162 16.7182C4.64269 15.5966 4.90273 14.4892 5.41014 13.4878C5.73013 12.8118 6.18242 12.2062 6.74049 11.7065C7.29855 11.2067 7.95119 10.8228 8.66016 10.5773C13.522 9.46559 13.7064 14.0594 13.7064 14.0594V26.1733H13.5694C11.1095 20.7666 4.65162 23.2628 4.65162 23.2628V16.7182ZM8.52847 39.7083C8.20165 39.708 7.87612 39.6675 7.55927 39.5877C2.12326 38.628 3.25575 31.1709 3.25575 31.1709C3.61394 24.9409 8.5232 25.1559 8.5232 25.1559H8.63381C12.7793 25.1559 13.5167 29.9543 13.5642 30.2742C13.7206 30.9802 13.7983 31.7013 13.7959 32.4243C13.7959 36.4412 11.4361 39.6978 8.52847 39.6978" fill="#070707"/>
<path d="M26.4792 5.08154H30.2771V15.103H30.3666C31.3938 12.932 33.4376 11.6734 36.2767 11.6734C40.38 11.6734 42.8294 14.3951 42.8294 18.6008V30.5888H38.9789V19.3455C38.9789 16.6081 37.5936 14.9614 34.8914 14.9614C32.0522 14.9614 30.3139 16.907 30.3139 19.8384V30.5888H26.4792V5.08154Z" fill="#070707"/>
<path d="M62.5349 25.1245C62.0081 28.5174 58.7739 30.9402 54.4915 30.9402C49.0081 30.9402 45.6896 27.2693 45.6896 21.3802C45.6896 15.4911 49.0607 11.6577 54.3335 11.6577C59.5166 11.6577 62.7614 15.2971 62.7614 20.9345V22.2455H49.5559V22.4762C49.5559 25.7118 51.5101 27.8462 54.581 27.8462C56.767 27.8462 58.3841 26.7502 58.8951 25.1245H62.5349ZM49.577 19.5762H58.9161C58.8266 16.7287 57.0146 14.7307 54.3335 14.7307C51.6523 14.7307 49.7718 16.7654 49.577 19.5762Z" fill="#070707"/>
<path d="M65.8585 5.08154H69.6932V30.5888H65.8585V5.08154Z" fill="#070707"/>
<path d="M91.2273 21.291C91.2273 27.1749 88.1195 30.9035 83.4367 30.9035C82.24 30.9526 81.0537 30.6647 80.0139 30.0729C78.974 29.4811 78.1229 28.6094 77.5583 27.5578H77.4687V36.7664H73.634V11.9933H77.3212V15.1922H77.395C77.9529 14.1093 78.8077 13.2059 79.8602 12.5868C80.9128 11.9678 82.12 11.6583 83.3419 11.6944C88.1037 11.6944 91.2273 15.4019 91.2273 21.291ZM87.2873 21.291C87.2873 17.3999 85.3857 14.909 82.3517 14.909C79.423 14.909 77.4529 17.4524 77.4529 21.291C77.4529 25.1297 79.4019 27.6731 82.3517 27.6731C85.3857 27.6731 87.2873 25.1979 87.2873 21.291Z" fill="#070707"/>
<path d="M93.3394 21.291C93.3394 15.4229 96.4682 11.6943 101.151 11.6943C102.35 11.6533 103.536 11.9499 104.573 12.5501C105.61 13.1504 106.456 14.0298 107.014 15.0873H107.082V5.08154H110.927V30.5888H107.198V27.4424H107.124C106.565 28.5232 105.71 29.424 104.657 30.0403C103.604 30.6566 102.398 30.9632 101.177 30.9245C96.4682 30.9035 93.3394 27.1592 93.3394 21.291ZM97.2636 21.291C97.2636 25.2136 99.1652 27.6731 102.199 27.6731C105.149 27.6731 107.119 25.1769 107.119 21.291C107.119 17.4052 105.149 14.909 102.199 14.909C99.1652 14.909 97.2636 17.3842 97.2636 21.291Z" fill="#070707"/>
<path d="M130.875 25.1245C130.348 28.5174 127.109 30.9402 122.831 30.9402C117.343 30.9402 114.024 27.2693 114.024 21.3802C114.024 15.4911 117.395 11.6577 122.673 11.6577C127.856 11.6577 131.101 15.2971 131.101 20.9345V22.2455H117.933V22.4762C117.933 25.7118 119.887 27.8462 122.958 27.8462C125.138 27.8462 126.756 26.7502 127.272 25.1245H130.875ZM117.912 19.5762H127.256C127.166 16.7287 125.36 14.7307 122.679 14.7307C119.997 14.7307 118.106 16.7654 117.912 19.5762Z" fill="#070707"/>
<path d="M141.03 11.6577C145.181 11.6577 148.094 13.9703 148.22 17.2793H144.639C144.46 15.596 143.09 14.5576 140.951 14.5576C138.813 14.5576 137.485 15.5645 137.485 17.0329C137.485 18.1813 138.412 18.9575 140.346 19.4347L143.506 20.1584C147.267 21.0603 148.689 22.4762 148.689 25.2137C148.689 28.6066 145.529 30.9402 140.93 30.9402C136.511 30.9402 133.556 28.659 133.277 25.2504H137.075C137.38 27.0334 138.765 28.0245 141.109 28.0245C143.453 28.0245 144.834 27.0701 144.834 25.5703C144.834 24.3851 144.128 23.7296 142.2 23.2366L138.86 22.4238C135.489 21.6057 133.782 19.8594 133.782 17.2583C133.714 13.9231 136.664 11.6577 141.03 11.6577Z" fill="#070707"/>
<path d="M163.186 11.9933H167.7L159.957 20.001L168 30.5888H163.544L157.223 22.3346L155.643 23.9079V30.5888H151.808V5.08154H155.643V19.9643H155.679L163.186 11.9933Z" fill="#070707"/>
</g>
<defs>
<clipPath id="clip0_118_355">
<rect width="168" height="42" fill="white"/>
</clipPath>
</defs>
</svg>
