<svg width="32" height="32" viewBox="0 0 32 32" fill="none" xmlns="http://www.w3.org/2000/svg">
<g clip-path="url(#clip0_118_105)">
<path d="M30.1687 0.487488H22.2812C21.5312 0.487488 20.9187 1.09999 20.9187 1.84999V5.79374C20.9187 6.54374 21.5312 7.15624 22.2812 7.15624C22.7187 7.15624 23.075 7.51249 23.075 7.94999V10.3875C23.075 10.7 23.4812 10.8125 23.6437 10.5437L25.4437 7.53749C25.5875 7.29999 25.8437 7.14999 26.125 7.14999H30.1625C30.9125 7.14999 31.525 6.53749 31.525 5.78749V1.84999C31.5312 1.09999 30.9187 0.487488 30.1687 0.487488Z" fill="#555555"/>
<path d="M16.2625 19.5625C15.6188 19.4375 15.1563 18.875 15.1563 18.225V14.475H9.93755V18.225C9.93755 18.8938 9.4563 19.4438 8.8313 19.5625C8.8313 19.5625 16.6125 19.6313 16.2625 19.5625Z" fill="#555555"/>
<path d="M17.7062 19.8375C17.3375 19.7688 7.38125 19.8375 7.38125 19.8375C3.5875 20.5688 0.84375 23.8938 0.84375 27.7563V30.4125C0.84375 31.0125 1.33125 31.5063 1.9375 31.5063H23.1562C23.7563 31.5063 24.25 31.0188 24.25 30.4125V27.7563C24.2437 23.8938 21.5062 20.5688 17.7062 19.8375Z" fill="#555555"/>
<path d="M22.0624 30.2438H3.02492L2.51867 20.9375C2.47492 20.1125 3.13117 19.4188 3.95617 19.4188H21.1312C21.9562 19.4188 22.6124 20.1125 22.5687 20.9375L22.0624 30.2438Z" fill="#555555"/>
<path d="M23.6125 29.4937H1.475C0.91875 29.4937 0.46875 29.9437 0.46875 30.5C0.46875 31.0562 0.91875 31.5062 1.475 31.5062H23.6125C24.1687 31.5062 24.6187 31.0562 24.6187 30.5C24.6187 29.95 24.1687 29.4937 23.6125 29.4937Z" fill="#555555"/>
<path d="M13.7999 29.4938C13.7999 28.6688 14.1124 27.875 14.6624 27.2625C14.6687 27.2563 14.6687 27.2563 14.6749 27.25C15.1249 26.7438 15.3999 26.075 15.3999 25.3438C15.3999 24.275 14.8187 23.35 13.9499 22.8563C13.7874 22.7625 13.5812 22.8813 13.5812 23.0688V25.1938C13.5812 25.55 13.2937 25.8375 12.9374 25.8375H12.1437C11.7874 25.8375 11.4999 25.55 11.4999 25.1938V23.0688C11.4999 22.8813 11.2937 22.7625 11.1312 22.8563C10.2687 23.35 9.68115 24.275 9.68115 25.3438C9.68115 26.075 9.95615 26.7438 10.4062 27.25C10.4124 27.2563 10.4124 27.2563 10.4187 27.2625C10.9687 27.875 11.2812 28.6688 11.2812 29.4938H13.7999Z" fill="#555555"/>
<path d="M18 9.51251H17.65L17.6437 8.10626C17.6312 5.16251 15.2 3.12501 12.5062 3.10626C9.82497 3.15001 7.39997 5.20001 7.41247 8.15001L7.41872 9.14376V9.55626H7.06872C6.55622 9.55626 6.14372 9.98126 6.14997 10.5L6.15622 11.5375C6.15622 12.0563 6.57497 12.475 7.08747 12.4688H7.43747C7.47497 13.8313 8.04372 15.1375 9.06247 16.0188C9.88747 16.7313 11.0437 17.35 12.5687 17.3625C14.0937 17.3375 15.2437 16.7063 16.0625 15.9875C17.0812 15.0938 17.6375 13.7813 17.6625 12.425H18.0125C18.525 12.425 18.9375 12 18.9312 11.4813L18.925 10.4438C18.9312 9.93126 18.5125 9.51251 18 9.51251Z" fill="#555555"/>
<path d="M17.6626 8.66876V12.5313H18.6876C19.2626 12.5313 19.7313 12.0625 19.7313 11.4875V9.70626C19.7313 9.13126 19.2626 8.66251 18.6876 8.66251L17.6626 8.66876Z" fill="#555555"/>
<path d="M7.4313 8.66876V12.5313H6.4063C5.8313 12.5313 5.36255 12.0625 5.36255 11.4875V9.70626C5.36255 9.13126 5.8313 8.66251 6.4063 8.66251L7.4313 8.66876Z" fill="#555555"/>
<path d="M17.3188 4.33124H17.2687C16.975 4.33124 16.7437 4.09374 16.7437 3.80624C16.7437 2.94374 16.0437 2.24374 15.1812 2.24374H10.2188C8.0125 2.24374 6.21875 4.03749 6.21875 6.24374V8.88749C6.21875 9.27499 6.4625 9.61874 6.83125 9.74999L7.81875 10.0937C8.1625 10.2125 8.525 9.95624 8.525 9.59374V7.73124C8.51875 6.82499 9.24375 6.08749 10.1375 6.08124H10.1562C10.4313 6.08124 10.7 6.12499 10.9625 6.20624C11.4187 6.35624 11.9 6.44374 12.3813 6.44374H12.7375C13.2188 6.44374 13.6937 6.35624 14.1562 6.20624C14.4125 6.12499 14.6875 6.08124 14.9625 6.08124H14.9812C15.875 6.08749 16.6 6.82499 16.5938 7.73124V9.59374C16.5938 9.95624 16.95 10.2125 17.3 10.0937L18.2875 9.74999C18.6562 9.62499 18.9 9.27499 18.9 8.88749V5.88749C18.875 5.03124 18.1813 4.33124 17.3188 4.33124Z" fill="#555555"/>
<path d="M16.0812 15.3813H14.9062C14.4563 15.3813 14.0938 15.0188 14.0938 14.5688C14.0938 14.1188 14.4563 13.7563 14.9062 13.7563H16.0812C16.5312 13.7563 16.8937 14.1188 16.8937 14.5688C16.8937 15.0188 16.5312 15.3813 16.0812 15.3813Z" fill="#555555"/>
<path d="M29.4312 2.33124H25.3438C25.0875 2.33124 24.875 2.54374 24.875 2.79999C24.875 3.05624 25.0875 3.26874 25.3438 3.26874H29.4312C29.6875 3.26874 29.9 3.05624 29.9 2.79999C29.9 2.54374 29.6937 2.33124 29.4312 2.33124Z" fill="#EEEEEE"/>
<path d="M23.0188 3.26874H23.5188C23.775 3.26874 23.9875 3.05624 23.9875 2.79999C23.9875 2.54374 23.775 2.33124 23.5188 2.33124H23.0188C22.7625 2.33124 22.55 2.54374 22.55 2.79999C22.55 3.05624 22.7625 3.26874 23.0188 3.26874Z" fill="#EEEEEE"/>
<path d="M23.0188 5.46875H29.4313C29.6875 5.46875 29.9 5.25625 29.9 5C29.9 4.74375 29.6875 4.53125 29.4313 4.53125H23.0188C22.7625 4.53125 22.55 4.74375 22.55 5C22.55 5.25625 22.7625 5.46875 23.0188 5.46875Z" fill="#EEEEEE"/>
<path d="M24.7125 27.7562C24.7125 25.8812 24.0875 24.0437 22.95 22.5625L23.0375 20.9625C23.0938 19.875 22.2313 18.95 21.1313 18.95H16C15.7625 18.7812 15.6187 18.5125 15.6187 18.2187V16.9125C16.4125 16.4 16.975 15.8125 17.3813 15.1125H18.2875C19.3375 15.1125 20.1938 14.2562 20.1938 13.2062V9.70624C20.1938 9.11874 19.85 8.59374 19.3438 8.34999V5.89374C19.3438 4.77499 18.4312 3.86249 17.3125 3.86249H17.2625C17.2313 3.86249 17.2062 3.83749 17.2062 3.80624C17.2062 2.68749 16.2938 1.77499 15.175 1.77499H10.2125C7.75 1.77499 5.74375 3.78124 5.74375 6.24374V8.34374C5.23125 8.59374 4.89375 9.11249 4.89375 9.69999V11.4812C4.89375 12.3125 5.56875 12.9937 6.40625 12.9937H7.0125C7.16875 14.3187 7.7875 15.5312 8.7625 16.3687C8.99375 16.5687 9.225 16.7437 9.46875 16.9V18.2125C9.46875 18.5062 9.325 18.775 9.0875 18.9437H3.95625C2.8625 18.9437 1.99375 19.8562 2.05 20.9562L2.1375 22.5562C1 24.0437 0.375 25.8812 0.375 27.7562V29.5187C0.14375 29.7812 0 30.125 0 30.5C0 31.3125 0.6625 31.975 1.475 31.975H23.6125C24.425 31.975 25.0875 31.3125 25.0875 30.5C25.0875 30.125 24.9438 29.7812 24.7125 29.5187V27.7562ZM23.775 27.7562V29.0375C23.7188 29.0312 23.6687 29.0312 23.6125 29.0312H22.6L22.8625 24.1562C23.4562 25.2562 23.775 26.4937 23.775 27.7562ZM19.2125 9.48124C19.2437 9.54999 19.2625 9.63124 19.2625 9.71249V11.4937C19.2625 11.8125 19.0063 12.0687 18.6875 12.0687H18.1313V10.3L18.4188 10.2C18.775 10.0687 19.0562 9.80624 19.2125 9.48124ZM16.0812 14.9125H14.9062C14.7188 14.9125 14.5625 14.7562 14.5625 14.5687C14.5625 14.3812 14.7188 14.225 14.9062 14.225H16.0812C16.2687 14.225 16.425 14.3812 16.425 14.5687C16.425 14.7562 16.275 14.9125 16.0812 14.9125ZM18.2938 14.175H17.8188C17.95 13.8 18.0437 13.4062 18.0875 13H18.6812C18.8813 13 19.075 12.9625 19.2563 12.8875V13.2125C19.2625 13.7437 18.825 14.175 18.2938 14.175ZM6.68125 6.24374C6.68125 4.29374 8.2625 2.71249 10.2125 2.71249H15.175C15.775 2.71249 16.2687 3.19999 16.2687 3.80624C16.2687 4.35624 16.7125 4.79999 17.2625 4.79999H17.3125C17.9125 4.79999 18.4062 5.28749 18.4062 5.89374V8.89374C18.4062 9.08124 18.2875 9.24999 18.1063 9.31249L17.1187 9.65624C17.0812 9.66874 17.0375 9.64374 17.0375 9.59999V7.73749C17.0438 6.37499 15.7688 5.19374 13.9875 5.76249C13.0875 6.04999 11.9812 6.04999 11.0875 5.76249C9.325 5.19374 8.03125 6.36249 8.0375 7.73124V9.59374C8.0375 9.63749 7.99375 9.66249 7.95625 9.64999L6.96875 9.30624C6.79375 9.24374 6.66875 9.07499 6.66875 8.88749L6.68125 6.24374ZM5.83125 11.4875V9.70624C5.83125 9.62499 5.85 9.54999 5.88125 9.47499C6.0375 9.79999 6.31875 10.0625 6.675 10.1875L6.9625 10.2875V12.0625H6.40625C6.0875 12.0625 5.83125 11.8062 5.83125 11.4875ZM7.90625 12.4562C7.89375 11.8375 7.9 11.1875 7.9 10.5875C7.93125 10.5875 7.95625 10.5937 7.9875 10.5937C8.54375 10.5937 8.9875 10.1437 8.9875 9.59374V7.73124C8.98125 6.96874 9.66875 6.28749 10.8125 6.65624C11.9 7.00624 13.2063 7.00624 14.2875 6.65624C15.3813 6.30624 16.1187 6.92499 16.1125 7.73124V9.59374C16.1125 10.175 16.6063 10.6375 17.2 10.5875V12.4937C17.1875 12.9 17.1187 13.2937 17.0063 13.6687C16.775 13.4312 16.45 13.2812 16.0875 13.2812H14.9125C14.2063 13.2812 13.6313 13.8562 13.6313 14.5625C13.6313 15.2687 14.2063 15.8437 14.9125 15.8437H15.5063C14.6375 16.5187 13.6562 16.875 12.575 16.8875C10.2062 16.875 7.975 15.125 7.90625 12.4562ZM10.4062 18.2187V17.4C11.0813 17.6812 11.8063 17.825 12.5688 17.8312H12.575H12.5813C13.325 17.8187 14.025 17.675 14.6875 17.4062V18.225C14.6875 18.4812 14.7437 18.7312 14.8375 18.9562H10.25C10.35 18.725 10.4062 18.475 10.4062 18.2187ZM2.225 24.15L2.3 25.5125C2.3125 25.7687 2.5375 25.9687 2.79375 25.9562C3.05 25.9437 3.25 25.7187 3.2375 25.4625L2.9875 20.9062C2.95625 20.35 3.4 19.8812 3.95625 19.8812H21.1313C21.6875 19.8812 22.1313 20.3437 22.1 20.9062L21.6625 29.0187H14.3125C14.4 28.4812 14.6438 27.9812 15.0125 27.5687L15.025 27.5562C16.4438 25.9687 16.0187 23.4875 14.1875 22.4437C13.7188 22.175 13.1187 22.5125 13.1187 23.0625V25.1875C13.1187 25.2875 13.0375 25.3625 12.9438 25.3625H12.15C12.05 25.3625 11.975 25.2812 11.975 25.1875V23.0625C11.975 22.5062 11.3813 22.175 10.9062 22.4437C9.0625 23.4937 8.65 25.975 10.0625 27.5625L10.075 27.575C10.4437 27.9875 10.6875 28.4937 10.775 29.025H3.43125L3.35625 27.6375C3.34375 27.3812 3.11875 27.1812 2.8625 27.1937C2.60625 27.2062 2.40625 27.4312 2.41875 27.6875L2.49375 29.025H1.475C1.41875 29.025 1.3625 29.0312 1.3125 29.0312V27.75C1.3125 26.4937 1.63125 25.2562 2.225 24.15ZM11.725 29.025C11.6313 28.2562 11.3 27.5312 10.775 26.9437L10.7625 26.9312C9.85625 25.9187 9.975 24.35 11.0312 23.4875V25.1937C11.0312 25.8062 11.5312 26.3062 12.1438 26.3062H12.9375C13.55 26.3062 14.05 25.8062 14.05 25.1937V23.4875C15.1 24.3437 15.2313 25.9125 14.3188 26.9312L14.3062 26.9437C13.7812 27.5312 13.45 28.2562 13.3562 29.025H11.725ZM23.6125 31.0437H1.475C1.175 31.0437 0.9375 30.8 0.9375 30.5062C0.9375 30.2125 1.18125 29.9687 1.475 29.9687H23.6125C23.9125 29.9687 24.15 30.2125 24.15 30.5062C24.15 30.8 23.9125 31.0437 23.6125 31.0437Z" fill="#EEEEEE"/>
<path d="M31.5312 5.72499C31.7875 5.72499 32 5.51249 32 5.25624V1.84999C32 0.837488 31.1812 0.0187378 30.1687 0.0187378H22.2812C21.2687 0.0187378 20.45 0.837488 20.45 1.84999V5.79374C20.45 6.80624 21.2687 7.62499 22.2812 7.62499C22.4625 7.62499 22.6062 7.76874 22.6062 7.94999V10.3875C22.6062 10.7375 22.8312 11.0375 23.1749 11.1312C23.5187 11.225 23.8625 11.0812 24.0437 10.7812L25.8437 7.77499C25.9 7.67499 26.0125 7.61874 26.125 7.61874H30.1625C31.175 7.61874 31.9937 6.79999 31.9937 5.78749V4.94999C31.9937 4.69374 31.7812 4.48124 31.525 4.48124C31.2687 4.48124 31.0562 4.69374 31.0562 4.94999V5.79374C31.0562 6.28749 30.6562 6.68749 30.1625 6.68749H26.125C25.6812 6.68749 25.2687 6.92499 25.0375 7.29999L23.5375 9.79999V7.94999C23.5375 7.24999 22.9687 6.68749 22.275 6.68749C21.7812 6.68749 21.3812 6.28749 21.3812 5.79374V1.84999C21.3812 1.35624 21.7812 0.956238 22.275 0.956238H30.1562C30.65 0.956238 31.0499 1.35624 31.0499 1.84999V5.25624C31.0624 5.51874 31.275 5.72499 31.5312 5.72499Z" fill="#555555"/>
</g>
<defs>
<clipPath id="clip0_118_105">
<rect width="32" height="32" fill="white"/>
</clipPath>
</defs>
</svg>
