<svg width="32" height="32" viewBox="0 0 32 32" fill="none" xmlns="http://www.w3.org/2000/svg">
<g clip-path="url(#clip0_118_56)">
<path d="M25.4941 9.96399C24.976 9.96399 24.5559 10.3841 24.5559 10.9022V27.6965H30.0451V10.9022C30.0451 10.3841 29.6251 9.96399 29.1069 9.96399H25.4941Z" fill="#555555"/>
<path d="M17.9061 16.416C17.388 16.416 16.9679 16.8361 16.9679 17.3542V27.6965H22.4571V17.3542C22.4571 16.8361 22.0371 16.416 21.5189 16.416H17.9061Z" fill="#555555"/>
<path d="M31.068 29.559H0.9382C0.420063 29.559 0 29.9791 0 30.4972C0 31.0153 0.420063 31.4354 0.9382 31.4354H31.068C32.3017 31.3939 32.3195 29.608 31.068 29.559Z" fill="#555555"/>
<path d="M7.28109 19.7311C7.28109 19.2129 6.86103 18.7929 6.34289 18.7929H2.73007C2.21193 18.7929 1.79187 19.2129 1.79187 19.7311V27.6965H7.28103L7.28109 19.7311Z" fill="#555555"/>
<path d="M10.3181 14.0459C9.79995 14.0459 9.37988 14.466 9.37988 14.9841V27.6965H14.869V14.9841C14.869 14.466 14.449 14.0459 13.9308 14.0459H10.3181Z" fill="#555555"/>
<path d="M4.62036 16.4326C6.65231 16.4637 8.03697 14.2389 7.14812 12.4341L10.5273 9.05487C11.3872 9.61629 12.5958 9.62824 13.4671 9.08471L17.0852 10.9732C17.3954 12.1809 18.4933 13.0761 19.7964 13.0761C21.614 13.104 23.0021 11.2723 22.4939 9.53248L26.151 5.87544C27.9621 6.79981 30.2103 5.40646 30.1832 3.36375C30.1832 1.82047 28.9276 0.564974 27.3843 0.564974C25.3809 0.530511 23.9745 2.73434 24.8416 4.53125L21.3926 7.98013C20.0565 7.00503 18.0391 7.52679 17.3184 8.97831L14.6691 7.59547C15.3018 5.81083 13.9176 3.86594 12.0208 3.88877C10.1374 3.86581 8.75344 5.78718 9.36271 7.56595L5.82132 11.1073C4.78204 10.6148 3.49996 10.7974 2.64132 11.656C0.879382 13.41 2.16234 16.4493 4.62036 16.4326Z" fill="#555555"/>
</g>
<defs>
<clipPath id="clip0_118_56">
<rect width="32" height="32" fill="white"/>
</clipPath>
</defs>
</svg>
