<svg width="32" height="32" viewBox="0 0 32 32" fill="none" xmlns="http://www.w3.org/2000/svg">
<g clip-path="url(#clip0_118_70)">
<path d="M27.3806 17.0825H24.9059C25.1581 17.7731 25.2959 18.5185 25.2959 19.2953V28.6484C25.2959 28.9723 25.2396 29.2832 25.137 29.5723H29.2283C30.7566 29.5723 32 28.3289 32 26.8007V21.7018C32 19.1548 29.9278 17.0825 27.3806 17.0825Z" fill="#555555"/>
<path d="M6.70408 19.2954C6.70408 18.5185 6.84189 17.7732 7.09414 17.0826H4.61938C2.07225 17.0826 0 19.1549 0 21.702V26.8008C0 28.3291 1.24331 29.5724 2.77163 29.5724H6.86301C6.76045 29.2832 6.70408 28.9724 6.70408 28.6485V19.2954Z" fill="#555555"/>
<path d="M18.8289 14.676H13.1713C10.6241 14.676 8.55188 16.7482 8.55188 19.2953V28.6485C8.55188 29.1587 8.96551 29.5724 9.47576 29.5724H22.5244C23.0347 29.5724 23.4483 29.1587 23.4483 28.6485V19.2953C23.4483 16.7482 21.376 14.676 18.8289 14.676Z" fill="#555555"/>
<path d="M16.0001 2.42749C12.9368 2.42749 10.4447 4.91962 10.4447 7.98294C10.4447 10.0608 11.5915 11.8754 13.2851 12.8282C14.0885 13.2801 15.0146 13.5383 16.0001 13.5383C16.9856 13.5383 17.9117 13.2801 18.715 12.8282C20.4087 11.8754 21.5555 10.0607 21.5555 7.98294C21.5555 4.91968 19.0633 2.42749 16.0001 2.42749Z" fill="#555555"/>
<path d="M6.24491 7.60559C3.95396 7.60559 2.09021 9.46934 2.09021 11.7603C2.09021 14.0512 3.95396 15.915 6.24491 15.915C6.82603 15.915 7.37941 15.7946 7.8821 15.5782C8.75122 15.204 9.46785 14.5417 9.91129 13.712C10.2225 13.1297 10.3996 12.4654 10.3996 11.7603C10.3996 9.46941 8.53585 7.60559 6.24491 7.60559Z" fill="#555555"/>
<path d="M25.7552 7.60559C23.4642 7.60559 21.6005 9.46934 21.6005 11.7603C21.6005 12.4654 21.7775 13.1297 22.0888 13.712C22.5322 14.5417 23.2488 15.2041 24.118 15.5782C24.6207 15.7946 25.174 15.915 25.7552 15.915C28.0461 15.915 29.9099 14.0512 29.9099 11.7603C29.9099 9.46934 28.0461 7.60559 25.7552 7.60559Z" fill="#555555"/>
</g>
<defs>
<clipPath id="clip0_118_70">
<rect width="32" height="32" fill="white"/>
</clipPath>
</defs>
</svg>
